<?xml version="1.0" encoding="utf-8"?>
<!-- Generator: Adobe Illustrator 16.0.0, SVG Export Plug-In . SVG Version: 6.00 Build 0)  -->
<!DOCTYPE svg PUBLIC "-//W3C//DTD SVG 1.1//EN" "http://www.w3.org/Graphics/SVG/1.1/DTD/svg11.dtd">
<svg version="1.1" id="图层_1" xmlns="http://www.w3.org/2000/svg" xmlns:xlink="http://www.w3.org/1999/xlink" x="0px" y="0px"
	 width="14px" height="14px" viewBox="0 0 14 14" enable-background="new 0 0 14 14" xml:space="preserve">
<path fill="#A0A0A0" d="M3.602,0.916c0,0.324,0,0.603,0,0.912C3.023,1.875,2.452,1.821,1.87,1.859
	C1.804,2.155,1.855,2.443,1.832,2.77C2.146,2.795,2.438,2.78,2.73,2.783c0.284,0.002,0.568,0,0.867,0c0,0.318,0,0.597,0,0.919
	C3.022,3.735,2.443,3.695,1.854,3.726c0,3.113,0,6.201,0,9.287c0.201,0.061,9.406,0.074,9.745,0.01c0-0.109,0-0.225,0-0.336
	c0-1.648,0.003-3.298-0.004-4.943c-0.001-0.199,0.044-0.352,0.19-0.489c0.18-0.167,0.339-0.355,0.513-0.533
	c0.043-0.044,0.093-0.083,0.17-0.148c0.01,0.132,0.019,0.226,0.019,0.321c0,1.96-0.002,3.92,0.005,5.878
	c0,0.202-0.05,0.352-0.193,0.489c-0.206,0.194-0.397,0.408-0.59,0.618c-0.076,0.083-0.158,0.128-0.269,0.117
	c-0.047-0.006-0.094-0.002-0.141-0.002c-3.058,0-6.115-0.002-9.171,0.007c-0.201,0-0.354-0.047-0.488-0.211
	c-0.151-0.184-0.314-0.359-0.492-0.515c-0.165-0.15-0.201-0.324-0.201-0.542C0.952,9.723,0.95,6.709,0.95,3.696
	c0-0.538,0.004-1.074-0.002-1.609C0.947,1.931,0.98,1.809,1.093,1.699C1.31,1.486,1.51,1.257,1.725,1.041
	c0.057-0.056,0.139-0.117,0.21-0.119C2.479,0.912,3.024,0.916,3.602,0.916z"/>
<path fill="#A0A0A0" d="M5.379,11.084c-0.555-0.58-1.13-1.178-1.687-1.762c2.037-2.144,4.092-4.304,6.137-6.456
	c0.543,0.583,1.117,1.199,1.665,1.79C9.473,6.782,7.414,8.946,5.379,11.084z"/>
<path fill="#A0A0A0" d="M4.517,3.682c0-1.233,0-2.447,0-3.682c1.47,0,2.928,0,4.423,0c0,0.291,0.004,0.57-0.006,0.847
	C8.931,0.913,8.869,0.984,8.82,1.037c-0.805,0.85-1.612,1.697-2.414,2.544C6.33,3.66,6.257,3.716,6.141,3.715
	C5.634,3.71,5.125,3.712,4.615,3.71C4.59,3.709,4.563,3.696,4.517,3.682z M6.294,1.828c0.299,0,0.571,0,0.851,0
	c0-0.31,0-0.596,0-0.898c-0.291,0-0.563,0-0.851,0C6.294,1.232,6.294,1.519,6.294,1.828z"/>
<path fill="#A0A0A0" d="M10.765,1.795c0.234-0.247,0.499-0.531,0.771-0.807c0.04-0.042,0.115-0.052,0.174-0.072
	c0.025-0.007,0.057-0.001,0.085-0.002c0.673-0.014,0.654,0.006,1.154,0.476c0.333,0.314,0.482,0.651,0.428,1.118
	c-0.021,0.196-0.063,0.345-0.197,0.484c-0.227,0.227-0.437,0.475-0.627,0.686C11.949,3.043,11.37,2.435,10.765,1.795z"/>
<path fill="#A0A0A0" d="M3.61,10.332c0.269,0.283,0.542,0.568,0.813,0.852c-0.114,0.121-1.079,0.652-1.599,0.871
	C2.829,11.872,3.419,10.589,3.61,10.332z"/>
</svg>
