<?xml version="1.0" encoding="utf-8"?>
<!-- Generator: Adobe Illustrator 16.0.0, SVG Export Plug-In . SVG Version: 6.00 Build 0)  -->
<!DOCTYPE svg PUBLIC "-//W3C//DTD SVG 1.1//EN" "http://www.w3.org/Graphics/SVG/1.1/DTD/svg11.dtd">
<svg version="1.1" id="图层_1" xmlns="http://www.w3.org/2000/svg" xmlns:xlink="http://www.w3.org/1999/xlink" x="0px" y="0px"
	 width="14px" height="14px" viewBox="57 57 14 14" enable-background="new 57 57 14 14" xml:space="preserve">
<path fill="#A0A0A0" d="M68.373,65.203c0,0.264,0,0.526,0,0.789c-0.001,0.237,0.007,0.475-0.005,0.712
	c-0.005,0.083-0.041,0.221-0.089,0.233c-0.08,0.021-0.194-0.02-0.271-0.07c-0.104-0.069-0.191-0.168-0.276-0.263
	c-0.377-0.422-0.756-0.843-1.124-1.273c-0.111-0.13-0.226-0.193-0.399-0.18c-0.18,0.015-0.361,0.004-0.543,0.004
	c-0.047,0.115-0.085,0.207-0.122,0.3c-0.255,0.619-0.631,1.151-1.149,1.577c-0.599,0.494-1.279,0.765-2.065,0.748
	c-0.237-0.006-0.475,0.007-0.712-0.004c-0.144-0.007-0.236,0.046-0.323,0.157c-0.331,0.426-0.667,0.847-1.007,1.264
	c-0.085,0.104-0.187,0.204-0.3,0.273c-0.17,0.104-0.3,0.035-0.338-0.164c-0.019-0.098-0.017-0.2-0.017-0.3
	c-0.002-0.419-0.001-0.838-0.001-1.261c-0.104-0.044-0.196-0.083-0.288-0.121c-0.462-0.188-0.876-0.449-1.242-0.788
	c-1.455-1.346-1.293-3.21-0.522-4.425c0.664-1.046,1.62-1.607,2.871-1.627c0.521-0.008,1.041-0.001,1.562-0.002
	c0.099,0,0.198,0,0.299,0c0.049-0.123,0.089-0.223,0.13-0.323c0.272-0.677,0.694-1.24,1.284-1.672
	c0.554-0.405,1.173-0.624,1.863-0.624c0.621,0,1.243,0.015,1.863-0.003c1.661-0.05,3.022,1.103,3.418,2.66
	c0.333,1.309,0.019,2.479-0.854,3.497c-0.396,0.464-0.892,0.779-1.519,0.845C68.464,65.166,68.431,65.184,68.373,65.203z
	 M67.503,64.32c0.174-0.019,0.327-0.033,0.479-0.052c1.105-0.139,1.866-0.824,2.066-1.889c0.057-0.302,0.081-0.619,0.061-0.925
	c-0.092-1.385-1.146-2.443-2.543-2.42c-0.565,0.01-1.132,0.005-1.698,0.001c-1.218-0.01-2.049,0.597-2.618,1.627
	c-0.038,0.069-0.06,0.146-0.095,0.233c0.161,0.049,0.301,0.089,0.438,0.134c1.454,0.475,2.224,1.522,2.241,3.047
	c0.001,0.061,0.012,0.121,0.02,0.205c0.206,0,0.396,0.006,0.586-0.002c0.129-0.005,0.226,0.036,0.315,0.128
	c0.185,0.19,0.378,0.372,0.57,0.553c0.041,0.039,0.094,0.065,0.177,0.121C67.503,64.803,67.503,64.568,67.503,64.32z"/>
<path fill="#FFFFFF" stroke="#000000" stroke-miterlimit="10" d="M61.47,65.831"/>
</svg>
