<?xml version="1.0" encoding="utf-8"?>
<!-- Generator: Adobe Illustrator 16.0.0, SVG Export Plug-In . SVG Version: 6.00 Build 0)  -->
<!DOCTYPE svg PUBLIC "-//W3C//DTD SVG 1.1//EN" "http://www.w3.org/Graphics/SVG/1.1/DTD/svg11.dtd">
<svg version="1.1" id="图层_1" xmlns="http://www.w3.org/2000/svg" xmlns:xlink="http://www.w3.org/1999/xlink" x="0px" y="0px"
	 width="14px" height="14px" viewBox="57 57 14 14" enable-background="new 57 57 14 14" xml:space="preserve">
<path fill="#A0A0A0" d="M66.251,68.549c-3.08,0-6.146,0-9.211,0c-0.112-0.324,0.027-0.914,0.225-1.213
	c0.442-0.672,1.098-0.934,1.849-1.051c0.222-0.033,0.445-0.07,0.659-0.135c0.185-0.057,0.367-0.139,0.533-0.238
	c0.318-0.191,0.471-0.484,0.462-0.857c-0.003-0.137-0.017-0.273-0.015-0.41c0.002-0.173-0.064-0.283-0.219-0.376
	c-0.332-0.198-0.595-0.469-0.776-0.819c-0.045-0.087-0.132-0.17-0.22-0.213c-0.216-0.106-0.332-0.27-0.341-0.504
	c-0.012-0.282-0.03-0.565-0.015-0.847c0.012-0.223,0.065-0.256,0.281-0.302c0.274-0.059,0.284-0.09,0.304-0.37
	c0.022-0.31,0.043-0.626,0.122-0.924c0.12-0.455,0.4-0.764,0.9-0.852c0.274-0.048,0.539-0.159,0.805-0.251
	c0.829-0.07,1.929,0.704,1.933,1.085c0.003,0.282,0.004,0.564,0.022,0.845c0.004,0.063,0.059,0.143,0.113,0.179
	c0.061,0.04,0.147,0.045,0.224,0.055c0.267,0.032,0.354,0.082,0.384,0.345c0.037,0.318,0.03,0.642,0.033,0.963
	c0.001,0.164-0.103,0.283-0.243,0.338c-0.356,0.14-0.571,0.397-0.75,0.728c-0.122,0.225-0.33,0.409-0.523,0.586
	c-0.118,0.108-0.188,0.217-0.188,0.375c0,0.01-0.001,0.02-0.002,0.029c-0.126,0.771,0.247,1.076,0.795,1.318
	c0.212,0.096,0.446,0.141,0.672,0.197c0.321,0.084,0.647,0.148,0.967,0.236C65.979,66.73,66.414,67.621,66.251,68.549z"/>
<path fill="#A0A0A0" d="M71,68.563c-1.052,0-2.103,0-3.167,0c-0.054-0.246-0.112-0.471-0.148-0.699
	c-0.111-0.686-0.511-1.17-1.076-1.531c-0.167-0.105-0.255-0.225-0.24-0.422c0.018-0.242-0.063-0.42-0.294-0.545
	c-0.14-0.074-0.255-0.215-0.35-0.348c-0.118-0.164-0.203-0.348-0.409-0.438c-0.058-0.025-0.113-0.121-0.119-0.188
	c-0.024-0.252-0.033-0.505-0.035-0.758c-0.001-0.112,0.048-0.209,0.179-0.232c0.148-0.026,0.177-0.128,0.169-0.26
	c-0.016-0.283-0.042-0.566-0.032-0.849c0.009-0.231,0.043-0.467,0.104-0.69c0.073-0.276,0.264-0.44,0.56-0.488
	c0.384-0.061,0.765-0.136,1.145-0.217c0.243-0.052,0.443-0.005,0.604,0.188c0.118,0.144,0.248,0.209,0.456,0.179
	c0.328-0.048,0.546,0.129,0.577,0.476c0.041,0.466,0.037,0.935,0.051,1.403c0.003,0.068-0.006,0.135-0.01,0.22
	c0.422,0.163,0.376,0.536,0.383,0.883c0.002,0.155-0.109,0.249-0.232,0.314c-0.154,0.082-0.242,0.207-0.331,0.354
	c-0.121,0.197-0.273,0.381-0.442,0.539c-0.125,0.117-0.193,0.232-0.189,0.4c0.003,0.088-0.015,0.176-0.022,0.264
	c-0.033,0.322,0.061,0.529,0.357,0.664c0.21,0.096,0.442,0.146,0.668,0.203c0.227,0.057,0.462,0.084,0.687,0.148
	C70.606,67.348,70.927,67.746,71,68.563z"/>
</svg>
