<?xml version="1.0" encoding="utf-8"?>
<!-- Generator: Adobe Illustrator 16.0.0, SVG Export Plug-In . SVG Version: 6.00 Build 0)  -->
<!DOCTYPE svg PUBLIC "-//W3C//DTD SVG 1.1//EN" "http://www.w3.org/Graphics/SVG/1.1/DTD/svg11.dtd">
<svg version="1.1" id="图层_1" xmlns="http://www.w3.org/2000/svg" xmlns:xlink="http://www.w3.org/1999/xlink" x="0px" y="0px"
	 width="14px" height="14px" viewBox="57 57 14 14" enable-background="new 57 57 14 14" xml:space="preserve">
<path fill="#A0A0A0" d="M57.932,58.895c0,2.479,0,4.944,0,7.442c0.122,0.005,0.234,0.014,0.348,0.014
	c1.2,0.001,2.4,0.007,3.601-0.005c0.227-0.003,0.359,0.061,0.455,0.269c0.096,0.21,0.23,0.402,0.349,0.604
	c-0.214,0.077-5.273,0.1-5.684,0.028c0-3.085,0-6.174,0-9.263c0.208-0.057,12.535-0.08,13.013-0.025
	c0.059,0.204,0.077,5.365,0.014,5.786c-0.162-0.132-0.296-0.274-0.457-0.367c-0.376-0.215-0.469-0.52-0.455-0.943
	c0.032-1.063,0.011-2.127,0.011-3.191c0-0.106,0-0.213,0-0.313C68.897,58.858,58.628,58.827,57.932,58.895z"/>
<path fill="#A0A0A0" d="M67.258,66.111c0.11-0.173,0.181-0.302,0.268-0.418c0.182-0.24,0.351-0.495,0.563-0.708
	c0.546-0.546,1.3-0.657,1.998-0.322c0.657,0.314,1.017,1.042,0.889,1.811c-0.126,0.751-0.539,1.307-1.178,1.7
	c-0.783,0.48-1.531,1.009-2.22,1.619c-0.101,0.09-0.201,0.181-0.31,0.278c-0.05-0.035-0.091-0.059-0.125-0.091
	c-0.732-0.68-1.535-1.265-2.389-1.782c-0.381-0.232-0.702-0.525-0.926-0.916c-0.266-0.465-0.381-0.96-0.268-1.491
	c0.124-0.577,0.456-0.99,1.017-1.188c0.693-0.243,1.335-0.151,1.859,0.393c0.222,0.229,0.398,0.502,0.592,0.76
	C67.103,65.854,67.163,65.964,67.258,66.111z"/>
<path fill="#A0A0A0" d="M67.337,63.908c-0.155-0.272-0.385-0.376-0.628-0.458c-0.514-0.172-1.047-0.233-1.582-0.273
	c-0.516-0.039-1.032-0.049-1.548-0.07c-0.507-0.021-0.855,0.224-1.075,0.664c-0.228,0.456-0.249,0.936-0.15,1.427
	c0.011,0.055,0.028,0.108,0.05,0.191c-0.103,0.01-0.186,0.025-0.269,0.025c-0.858,0.002-1.716-0.005-2.575,0.005
	c-0.2,0.003-0.333-0.068-0.444-0.221c-0.272-0.375-0.351-0.785-0.185-1.217c0.167-0.436,0.528-0.634,0.968-0.704
	c0.359-0.057,0.695,0.021,1.024,0.231c0.376-1.043,1.109-1.611,2.216-1.702c0.025-0.553,0.24-0.981,0.812-1.105
	c0.554-0.12,0.936,0.15,1.193,0.659c0.089-0.088,0.163-0.16,0.235-0.234c0.628-0.641,1.379-1.005,2.286-1.029
	c0.161-0.004,0.321-0.049,0.502-0.079c0.009,0.09,0.022,0.165,0.022,0.24c0.002,0.751-0.002,1.502,0.003,2.253
	c0.001,0.136-0.042,0.226-0.139,0.328c-0.173,0.181-0.317,0.393-0.459,0.601C67.503,63.575,67.436,63.728,67.337,63.908z"/>
<path fill="#A0A0A0" d="M60.679,61.228c-0.008,0.232-0.208,0.418-0.444,0.412c-0.236-0.007-0.425-0.206-0.417-0.438
	c0.008-0.233,0.208-0.42,0.443-0.413C60.495,60.795,60.687,60.997,60.679,61.228z"/>
</svg>
