<?xml version="1.0" encoding="utf-8"?>
<!-- Generator: Adobe Illustrator 16.0.0, SVG Export Plug-In . SVG Version: 6.00 Build 0)  -->
<!DOCTYPE svg PUBLIC "-//W3C//DTD SVG 1.1//EN" "http://www.w3.org/Graphics/SVG/1.1/DTD/svg11.dtd">
<svg version="1.1" id="图层_1" xmlns="http://www.w3.org/2000/svg" xmlns:xlink="http://www.w3.org/1999/xlink" x="0px" y="0px"
	 width="14px" height="14px" viewBox="0 0 14 14" enable-background="new 0 0 14 14" xml:space="preserve">
<g>
	<path fill="#A0A0A0" d="M5.771,10.482C5.202,9.887,4.61,9.27,4.038,8.671c2.093-2.202,4.206-4.422,6.306-6.634
		c0.559,0.599,1.148,1.232,1.711,1.839C9.977,6.06,7.863,8.285,5.771,10.482z"/>
	<path fill="#A0A0A0" d="M11.305,0.937c0.242-0.254,0.512-0.546,0.793-0.829c0.041-0.043,0.117-0.053,0.178-0.074
		c0.027-0.007,0.061-0.001,0.088-0.002c0.691-0.015,0.674,0.006,1.186,0.489c0.342,0.323,0.496,0.668,0.439,1.149
		c-0.021,0.201-0.064,0.354-0.203,0.496c-0.232,0.234-0.447,0.488-0.643,0.705C12.521,2.219,11.928,1.594,11.305,0.937z"/>
	<path fill="#A0A0A0" d="M3.953,9.71C4.229,10,4.511,10.292,4.79,10.583c-0.118,0.124-1.109,0.672-1.644,0.896
		C3.149,11.293,3.758,9.974,3.953,9.71z"/>
</g>
<path fill="none" d="M1.667,3.667v7.542c0,0.604,0.398,1.098,0.887,1.098h8.036c0.49,0,0.889-0.493,0.889-1.098V5.788H8.064V2.569
	H2.554C2.065,2.569,1.667,3.062,1.667,3.667z"/>
<path fill="#A0A0A0" d="M11.479,11.209c0,0.605-0.398,1.099-0.889,1.099H2.554c-0.489,0-0.887-0.493-0.887-1.099V3.667
	c0-0.606,0.398-1.099,0.887-1.099h5.511V0.905H2.107C0.945,0.905,0,1.956,0,3.248v8.381c0,1.292,0.945,2.343,2.107,2.343h8.928
	c1.164,0,2.107-1.051,2.107-2.343V5.788h-1.666v5.421H11.479z"/>
</svg>
