<?xml version="1.0" encoding="utf-8"?>
<!-- Generator: Adobe Illustrator 16.0.0, SVG Export Plug-In . SVG Version: 6.00 Build 0)  -->
<!DOCTYPE svg PUBLIC "-//W3C//DTD SVG 1.1//EN" "http://www.w3.org/Graphics/SVG/1.1/DTD/svg11.dtd">
<svg version="1.1" id="图层_1" xmlns="http://www.w3.org/2000/svg" xmlns:xlink="http://www.w3.org/1999/xlink" x="0px" y="0px"
	 width="14px" height="14px" viewBox="57 57 14 14" enable-background="new 57 57 14 14" xml:space="preserve">
<path fill="#A0A0A0" d="M65.413,70.188c-2.739,0-5.479,0-8.229,0c-0.007-0.014-0.028-0.035-0.029-0.061
	c-0.017-0.539-0.007-1.078,0.118-1.607c0.045-0.191,0.141-0.348,0.272-0.496c0.524-0.598,1.198-0.918,1.955-1.09
	c0.303-0.068,0.61-0.117,0.916-0.174c0.408-0.072,0.802-0.182,1.166-0.385c0.335-0.188,0.608-0.438,0.76-0.799
	c0.034-0.082,0.062-0.174,0.061-0.262c-0.001-0.229-0.023-0.457-0.03-0.686c-0.003-0.1-0.041-0.169-0.124-0.227
	c-0.421-0.295-0.739-0.674-0.954-1.145c-0.037-0.08-0.129-0.153-0.213-0.188c-0.322-0.135-0.476-0.386-0.445-0.713
	c0.032-0.343,0.113-0.682,0.194-1.018c0.042-0.177,0.16-0.292,0.363-0.326c0.212-0.034,0.25-0.099,0.236-0.326
	c-0.026-0.431-0.019-0.86,0.072-1.283c0.038-0.177,0.096-0.353,0.169-0.519c0.15-0.339,0.406-0.553,0.781-0.619
	c0.163-0.029,0.354-0.018,0.44-0.216c0.01-0.023,0.063-0.03,0.098-0.037c0.242-0.048,0.485-0.091,0.727-0.14
	c0.187-0.039,0.346,0.019,0.483,0.137c0.138,0.119,0.266,0.25,0.396,0.378c0.111,0.11,0.229,0.154,0.395,0.12
	c0.527-0.107,0.88,0.15,0.946,0.68c0.017,0.126,0.012,0.255,0.017,0.383c0.01,0.237,0.026,0.474,0.028,0.711
	c0.002,0.145-0.015,0.291-0.028,0.436c-0.019,0.195,0.025,0.271,0.214,0.316c0.079,0.019,0.163,0.026,0.244,0.025
	c0.184-0.003,0.299,0.089,0.345,0.255c0.112,0.406,0.097,0.816-0.021,1.217c-0.028,0.096-0.117,0.183-0.196,0.255
	c-0.08,0.073-0.177,0.132-0.274,0.18c-0.163,0.082-0.254,0.21-0.337,0.373c-0.145,0.283-0.303,0.568-0.504,0.811
	c-0.21,0.253-0.396,0.519-0.581,0.787c-1.068,1.539-0.904,3.617,0.392,4.973c0.067,0.072,0.135,0.143,0.202,0.213
	C65.428,70.145,65.421,70.166,65.413,70.188z"/>
<path fill="#A0A0A0" d="M68.04,70.244c-1.715-0.027-3.053-1.418-3.024-3.145c0.026-1.67,1.429-3.004,3.131-2.98
	c1.673,0.024,3.039,1.441,3.002,3.115C71.11,68.924,69.72,70.271,68.04,70.244z M68.504,66.766c-0.3,0-0.567,0-0.843,0
	c0,0.873,0,1.725,0,2.572c0.304,0.057,0.653,0.049,0.843-0.018C68.504,68.477,68.504,67.631,68.504,66.766z M68.503,65.855
	c0-0.291,0-0.559,0-0.84c-0.29,0-0.564,0-0.84,0c0,0.291,0,0.559,0,0.84C67.944,65.855,68.206,65.855,68.503,65.855z"/>
</svg>
