<?xml version="1.0" encoding="utf-8"?>
<!-- Generator: Adobe Illustrator 16.0.0, SVG Export Plug-In . SVG Version: 6.00 Build 0)  -->
<!DOCTYPE svg PUBLIC "-//W3C//DTD SVG 1.1//EN" "http://www.w3.org/Graphics/SVG/1.1/DTD/svg11.dtd">
<svg version="1.1" id="图层_1" xmlns="http://www.w3.org/2000/svg" xmlns:xlink="http://www.w3.org/1999/xlink" x="0px" y="0px"
	 width="14px" height="14px" viewBox="57 57 14 14" enable-background="new 57 57 14 14" xml:space="preserve">
<path fill="#A0A0A0" d="M59.797,68.199v0.934h8.407v-0.934H59.797z M59.797,66.334v0.933h8.407v-0.933H59.797z M59.797,64.467V65.4
	h8.407v-0.934H59.797z M63.533,62.6v0.934h4.671V62.6H63.533z M63.533,60.733v0.934h4.671v-0.934H63.533z M59.797,60.733v2.8h2.802
	v-2.8H59.797z M63.533,57.933H64h0.467V58.4v0.467H64h-0.467V58.4V57.933L63.533,57.933z M66.335,59.8v-0.933v-0.934V57h-1.868
	h-2.803v0.933v0.934V59.8H66.335z M57.929,58.867V59.8v0.934v9.333L58.863,71h8.407h1.867l0.935-0.934v-6.533v-2.8V59.8v-0.933
	l-0.935-0.934H67.27v0.934h1.867V59.8v0.934v3.733v5.6H67.27h-8.407v-9.333V59.8v-0.933h1.868v-0.934h-1.868L57.929,58.867z"/>
</svg>
