<?xml version="1.0" encoding="utf-8"?>
<!-- Generator: Adobe Illustrator 16.0.0, SVG Export Plug-In . SVG Version: 6.00 Build 0)  -->
<!DOCTYPE svg PUBLIC "-//W3C//DTD SVG 1.1//EN" "http://www.w3.org/Graphics/SVG/1.1/DTD/svg11.dtd">
<svg version="1.1" id="图层_1" xmlns="http://www.w3.org/2000/svg" xmlns:xlink="http://www.w3.org/1999/xlink" x="0px" y="0px"
	 width="14px" height="14px" viewBox="57 57 14 14" enable-background="new 57 57 14 14" xml:space="preserve">
<path fill="#A0A0A0" d="M64.287,62.261c-0.65,0.489-1.32,0.554-1.994,0.223c-0.665,0.664-1.321,1.319-1.993,1.99
	c0.37,0.987,0.169,1.803-0.594,2.303c-0.692,0.453-1.605,0.359-2.19-0.225c-0.578-0.576-0.682-1.48-0.25-2.168
	c0.491-0.781,1.305-0.991,2.336-0.619c0.66-0.658,1.311-1.308,1.981-1.977c-0.023-0.057-0.063-0.147-0.098-0.24
	c-0.26-0.699-0.05-1.485,0.523-1.96c0.564-0.468,1.368-0.534,2-0.162c0.645,0.379,0.98,1.118,0.83,1.849
	c-0.029,0.142-0.032,0.251,0.074,0.375c1.094,1.265,2.179,2.537,3.267,3.806c0.035,0.041,0.073,0.08,0.099,0.109
	c0.216-0.076,0.408-0.164,0.61-0.209c0.741-0.164,1.492,0.172,1.874,0.824c0.387,0.662,0.299,1.492-0.22,2.061
	c-0.508,0.559-1.317,0.729-2.007,0.418s-1.106-1.025-1.024-1.777c0.017-0.152,0.049-0.311,0.112-0.449
	c0.07-0.152,0.032-0.248-0.067-0.363c-0.842-0.975-1.679-1.955-2.518-2.933C64.795,62.854,64.551,62.569,64.287,62.261z"/>
</svg>
