<?xml version="1.0" encoding="utf-8"?>
<!-- Generator: Adobe Illustrator 16.0.0, SVG Export Plug-In . SVG Version: 6.00 Build 0)  -->
<!DOCTYPE svg PUBLIC "-//W3C//DTD SVG 1.1//EN" "http://www.w3.org/Graphics/SVG/1.1/DTD/svg11.dtd">
<svg version="1.1" id="图层_1" xmlns="http://www.w3.org/2000/svg" xmlns:xlink="http://www.w3.org/1999/xlink" x="0px" y="0px"
	 width="14px" height="14px" viewBox="57 57 14 14" enable-background="new 57 57 14 14" xml:space="preserve">
<path fill="#A0A0A0" d="M62.458,62.715c-0.225,0.502-0.283,0.998-0.082,1.502c0.136,0.34,0.358,0.613,0.665,0.816
	c0.605,0.399,1.398,0.383,1.984-0.043c0.354-0.257,0.58-0.602,0.684-1.027c0.104-0.426,0.019-0.831-0.163-1.25
	c0.092-0.009,0.16-0.02,0.229-0.02c1.279-0.001,2.559-0.003,3.838,0c0.604,0.001,1.137,0.391,1.331,0.963
	c0.113,0.333,0.063,0.649-0.111,0.949c-0.178,0.303-0.438,0.511-0.753,0.647c0.004,0.098,0.027,0.193,0.01,0.28
	c-0.268,1.354-0.54,2.705-0.813,4.058c-0.005,0.025-0.019,0.05-0.034,0.092c-3.483,0-6.971,0-10.5,0
	c-0.282-1.433-0.565-2.872-0.845-4.312c-0.004-0.021,0.044-0.051,0.078-0.087c-0.064-0.034-0.126-0.063-0.187-0.098
	c-0.063-0.036-0.127-0.072-0.187-0.115c-0.48-0.341-0.701-0.892-0.553-1.38c0.167-0.554,0.711-0.992,1.279-0.996
	c1.325-0.009,2.65-0.003,3.976-0.002C62.346,62.693,62.388,62.705,62.458,62.715z M63.063,68.634
	c0.099-0.535,0.077-2.229,0.015-2.424c-0.261,0-0.522,0-0.821,0C62.532,67.033,62.798,67.834,63.063,68.634z M61.369,66.218
	c-0.279-0.041-0.552-0.017-0.862-0.018c0.099,0.304,0.185,0.57,0.273,0.837c0.091,0.276,0.179,0.555,0.277,0.828
	c0.092,0.257,0.15,0.528,0.312,0.76C61.369,67.833,61.369,67.042,61.369,66.218z M64.914,66.207
	c-0.063,0.396-0.044,2.249,0.021,2.412c0.319-0.801,0.761-2.209,0.753-2.412C65.437,66.207,65.184,66.207,64.914,66.207z
	 M67.5,66.204c-0.315-0.008-0.583-0.017-0.844,0.003c-0.053,0.466-0.034,2.198,0.033,2.431C66.964,67.813,67.228,67.023,67.5,66.204
	z"/>
<path fill="#A0A0A0" d="M63.129,61.382c0-0.694-0.003-1.389,0.002-2.083c0-0.125,0.013-0.258,0.055-0.375
	c0.134-0.377,0.538-0.643,0.89-0.603c0.399,0.046,0.753,0.41,0.801,0.823c0.006,0.045,0.005,0.091,0.005,0.137
	c0.001,1.398,0,2.796,0.001,4.193c0.001,0.218-0.055,0.415-0.187,0.589c-0.234,0.31-0.594,0.444-0.914,0.342
	c-0.366-0.117-0.634-0.458-0.653-0.831c-0.003-0.073-0.001-0.146-0.001-0.219C63.128,62.698,63.129,62.04,63.129,61.382z"/>
</svg>
