<?xml version="1.0" encoding="utf-8"?>
<!-- Generator: Adobe Illustrator 16.0.0, SVG Export Plug-In . SVG Version: 6.00 Build 0)  -->
<!DOCTYPE svg PUBLIC "-//W3C//DTD SVG 1.1//EN" "http://www.w3.org/Graphics/SVG/1.1/DTD/svg11.dtd">
<svg version="1.1" id="图层_1" xmlns="http://www.w3.org/2000/svg" xmlns:xlink="http://www.w3.org/1999/xlink" x="0px" y="0px"
	 width="14px" height="14px" viewBox="57.084 56.917 14 14" enable-background="new 57.084 56.917 14 14" xml:space="preserve">
<path fill="#A0A0A0" d="M61.36,61.902c-1.164-0.024-2.018-0.091-2.835-0.368c-0.342-0.116-0.686-0.263-0.984-0.462
	c-0.608-0.407-0.612-0.949-0.006-1.352c0.316-0.209,0.677-0.381,1.042-0.484c1.672-0.471,3.357-0.468,5.031,0.001
	c0.336,0.095,0.667,0.247,0.965,0.433c0.688,0.433,0.685,0.997,0.009,1.448c-0.495,0.332-1.056,0.502-1.633,0.596
	C62.323,61.813,61.688,61.864,61.36,61.902z"/>
<path fill="#A0A0A0" d="M68.584,63.892c-0.557-0.01-1.098-0.099-1.603-0.352c-0.265-0.131-0.5-0.299-0.678-0.54
	c-0.287-0.384-0.287-0.831-0.003-1.215c0.184-0.249,0.428-0.43,0.708-0.553c1.047-0.46,2.104-0.468,3.146,0.004
	c0.24,0.109,0.466,0.286,0.647,0.478c0.38,0.407,0.369,0.934,0.007,1.358c-0.209,0.243-0.472,0.407-0.763,0.533
	C69.58,63.809,69.089,63.882,68.584,63.892z"/>
<path fill="#A0A0A0" d="M64.855,65.913c0.303,0.369,0.317,0.666,0.005,0.96c-0.21,0.195-0.466,0.355-0.725,0.479
	c-0.61,0.288-1.27,0.409-1.937,0.477c-1.151,0.115-2.296,0.082-3.419-0.219c-0.31-0.083-0.616-0.198-0.907-0.336
	c-0.202-0.099-0.396-0.238-0.557-0.396c-0.304-0.301-0.297-0.598-0.01-0.946c0.201,0.122,0.396,0.259,0.607,0.366
	c0.489,0.247,1.016,0.378,1.553,0.464c1.24,0.194,2.475,0.181,3.704-0.092C63.775,66.537,64.354,66.334,64.855,65.913z"/>
<path fill="#A0A0A0" d="M57.317,61.914c0.651,0.537,1.417,0.731,2.204,0.857c1.087,0.175,2.179,0.17,3.267-0.024
	c0.744-0.132,1.463-0.331,2.06-0.821c0.289,0.299,0.335,0.582,0.082,0.862c-0.176,0.197-0.402,0.363-0.635,0.491
	c-0.489,0.267-1.031,0.394-1.578,0.479c-1.333,0.209-2.66,0.191-3.969-0.158c-0.329-0.088-0.649-0.225-0.958-0.372
	c-0.174-0.083-0.337-0.212-0.474-0.351C57.016,62.573,57.02,62.286,57.317,61.914z"/>
<path fill="#A0A0A0" d="M64.854,63.924c0.29,0.321,0.324,0.606,0.054,0.892c-0.183,0.194-0.414,0.353-0.649,0.478
	c-0.49,0.264-1.032,0.388-1.58,0.471c-1.312,0.197-2.618,0.184-3.906-0.158c-0.339-0.09-0.669-0.231-0.988-0.381
	c-0.175-0.082-0.336-0.213-0.472-0.352c-0.298-0.308-0.292-0.6,0.006-0.956c0.439,0.363,0.955,0.575,1.505,0.706
	c1.517,0.363,3.035,0.366,4.551-0.007C64.016,64.462,64.319,64.309,64.854,63.924z"/>
<path fill="#A0A0A0" d="M66.203,65.942c1.114,1.321,3.814,1.191,4.742,0.001c0.179,0.277,0.164,0.553,0.051,0.831
	c-0.103,0.248-0.289,0.431-0.506,0.582c-0.365,0.259-0.775,0.402-1.213,0.472c-0.736,0.117-1.456,0.071-2.15-0.223
	c-0.341-0.145-0.646-0.339-0.857-0.653C66.055,66.633,66.031,66.305,66.203,65.942z"/>
<path fill="#A0A0A0" d="M70.955,63.917c0.192,0.43,0.144,0.781-0.108,1.105c-0.201,0.265-0.469,0.447-0.772,0.57
	c-0.993,0.404-1.991,0.404-2.983-0.003c-0.313-0.126-0.587-0.316-0.792-0.595c-0.241-0.326-0.271-0.648-0.08-1.058
	c0.626,0.722,1.452,0.951,2.351,0.951C69.471,64.889,70.306,64.679,70.955,63.917z"/>
</svg>
