<?xml version="1.0" encoding="utf-8"?>
<!-- Generator: Adobe Illustrator 16.0.0, SVG Export Plug-In . SVG Version: 6.00 Build 0)  -->
<!DOCTYPE svg PUBLIC "-//W3C//DTD SVG 1.1//EN" "http://www.w3.org/Graphics/SVG/1.1/DTD/svg11.dtd">
<svg version="1.1" id="图层_1" xmlns="http://www.w3.org/2000/svg" xmlns:xlink="http://www.w3.org/1999/xlink" x="0px" y="0px"
	 width="14px" height="14px" viewBox="-1 -1 14 14" enable-background="new -1 -1 14 14" xml:space="preserve">
<path fill="#A0A0A0" d="M13,12.602c-4.681,0-9.315,0-13.953,0c-0.015-0.03-0.038-0.055-0.039-0.082
	c-0.023-0.541,0-1.078,0.113-1.611c0.05-0.236,0.167-0.429,0.329-0.611c0.663-0.75,1.542-1.055,2.484-1.238
	c0.385-0.074,0.776-0.13,1.153-0.237C3.366,8.74,3.642,8.617,3.889,8.464c0.203-0.127,0.379-0.31,0.535-0.495
	c0.182-0.215,0.243-0.474,0.231-0.767c-0.017-0.425-0.07-0.786-0.486-1.045C3.854,5.961,3.651,5.623,3.503,5.273
	C3.441,5.126,3.352,5.032,3.205,4.976C2.846,4.84,2.722,4.544,2.75,4.198c0.027-0.33,0.097-0.66,0.176-0.982
	C2.981,2.99,3.099,2.81,3.378,2.78C3.563,2.76,3.597,2.67,3.604,2.462C3.62,2.021,3.62,1.579,3.669,1.141
	c0.027-0.238,0.12-0.476,0.222-0.697c0.151-0.33,0.414-0.535,0.784-0.604c0.181-0.035,0.399-0.019,0.501-0.241
	C5.189-0.429,5.263-0.434,5.31-0.442c0.222-0.044,0.447-0.07,0.665-0.131c0.256-0.073,0.465,0,0.652,0.165
	c0.132,0.117,0.255,0.245,0.379,0.371c0.119,0.121,0.25,0.161,0.427,0.129c0.591-0.109,0.975,0.167,1.011,0.761
	c0.033,0.546,0.021,1.096,0.013,1.644C8.454,2.651,8.5,2.748,8.64,2.787c0.104,0.03,0.212,0.045,0.319,0.046
	c0.194,0.002,0.321,0.093,0.37,0.275c0.115,0.438,0.104,0.877-0.024,1.308C9.271,4.527,9.163,4.624,9.07,4.707
	C8.983,4.785,8.879,4.845,8.773,4.9C8.619,4.98,8.519,5.095,8.451,5.26C8.267,5.711,7.99,6.104,7.645,6.447
	C7.55,6.541,7.491,6.64,7.486,6.778C7.479,6.984,7.45,7.189,7.433,7.394C7.399,7.837,7.586,8.175,7.929,8.436
	c0.304,0.231,0.65,0.366,1.019,0.448c0.402,0.087,0.814,0.138,1.214,0.238c0.379,0.096,0.754,0.217,1.118,0.36
	c0.506,0.197,0.896,0.561,1.252,0.96c0.064,0.072,0.115,0.161,0.147,0.252C12.9,11.299,12.967,11.93,13,12.602z"/>
</svg>
