<?xml version="1.0" encoding="utf-8"?>
<!-- Generator: Adobe Illustrator 16.0.0, SVG Export Plug-In . SVG Version: 6.00 Build 0)  -->
<!DOCTYPE svg PUBLIC "-//W3C//DTD SVG 1.1//EN" "http://www.w3.org/Graphics/SVG/1.1/DTD/svg11.dtd">
<svg version="1.1" id="图层_1" xmlns="http://www.w3.org/2000/svg" xmlns:xlink="http://www.w3.org/1999/xlink" x="0px" y="0px"
	 width="128px" height="128px" viewBox="0 0 128 128" enable-background="new 0 0 128 128" xml:space="preserve">
<path fill-rule="evenodd" clip-rule="evenodd" d="M66.207,48.216c-5.691,4.274-11.558,4.843-17.454,1.95
	c-5.819,5.813-11.564,11.551-17.441,17.421c3.236,8.633,1.482,15.791-5.201,20.163c-6.062,3.965-14.049,3.144-19.174-1.972
	C1.881,80.731,0.97,72.822,4.75,66.802c4.293-6.837,11.42-8.673,20.446-5.415c5.773-5.763,11.471-11.449,17.339-17.308
	c-0.202-0.493-0.552-1.286-0.854-2.097c-2.276-6.114-0.436-12.997,4.58-17.158c4.941-4.101,11.971-4.671,17.5-1.418
	c5.649,3.323,8.579,9.786,7.264,16.189c-0.254,1.238-0.287,2.196,0.65,3.281c9.568,11.071,19.07,22.202,28.594,33.314
	c0.308,0.359,0.637,0.702,0.865,0.954c1.887-0.657,3.568-1.432,5.334-1.824c6.496-1.444,13.061,1.498,16.404,7.216
	c3.389,5.796,2.617,13.057-1.918,18.041c-4.449,4.89-11.531,6.36-17.569,3.647c-6.037-2.713-9.688-8.977-8.966-15.548
	c0.146-1.336,0.429-2.723,0.986-3.93c0.617-1.335,0.279-2.174-0.596-3.188c-7.367-8.536-14.691-17.109-22.029-25.672
	C70.651,53.403,68.521,50.917,66.207,48.216z"/>
</svg>
