<?xml version="1.0" encoding="utf-8"?>
<!-- Generator: Adobe Illustrator 16.0.0, SVG Export Plug-In . SVG Version: 6.00 Build 0)  -->
<!DOCTYPE svg PUBLIC "-//W3C//DTD SVG 1.1//EN" "http://www.w3.org/Graphics/SVG/1.1/DTD/svg11.dtd">
<svg version="1.1" id="图层_1" xmlns="http://www.w3.org/2000/svg" xmlns:xlink="http://www.w3.org/1999/xlink" x="0px" y="0px"
	 width="128px" height="128px" viewBox="0 0 128 128" enable-background="new 0 0 128 128" xml:space="preserve">
<path fill-rule="evenodd" clip-rule="evenodd" d="M13.731,22.095c0,20.322,0,40.521,0,60.993c0.996,0.041,1.922,0.111,2.848,0.112
	c9.837,0.008,19.676,0.058,29.512-0.041c1.861-0.019,2.945,0.5,3.726,2.203c0.787,1.718,1.886,3.294,2.86,4.954
	c-1.754,0.629-43.222,0.813-46.583,0.229c0-25.285,0-50.601,0-75.912c1.702-0.466,102.738-0.655,106.65-0.204
	c0.485,1.672,0.634,43.973,0.112,47.418c-1.326-1.085-2.42-2.25-3.745-3.008c-3.083-1.762-3.839-4.261-3.732-7.731
	c0.268-8.709,0.089-17.433,0.089-26.151c0-0.872,0-1.743,0-2.563C103.602,21.793,19.436,21.535,13.731,22.095z"/>
<path fill-rule="evenodd" clip-rule="evenodd" d="M90.169,81.24c0.899-1.416,1.478-2.471,2.193-3.422
	c1.486-1.975,2.874-4.065,4.609-5.803c4.473-4.477,10.653-5.384,16.375-2.647c5.388,2.577,8.332,8.544,7.28,14.843
	c-1.027,6.15-4.412,10.711-9.652,13.93c-6.418,3.941-12.546,8.271-18.187,13.273c-0.83,0.736-1.649,1.484-2.54,2.285
	c-0.405-0.291-0.747-0.486-1.028-0.748c-5.997-5.574-12.578-10.367-19.569-14.609c-3.13-1.9-5.761-4.306-7.592-7.506
	c-2.179-3.807-3.123-7.869-2.196-12.223c1.009-4.73,3.734-8.116,8.334-9.73c5.682-1.995,10.941-1.242,15.238,3.215
	c1.815,1.883,3.269,4.119,4.848,6.225C88.893,79.137,89.395,80.033,90.169,81.24z"/>
<path fill-rule="evenodd" clip-rule="evenodd" d="M90.818,63.181c-1.278-2.229-3.153-3.088-5.152-3.757
	c-4.205-1.406-8.58-1.91-12.961-2.239c-4.222-0.317-8.461-0.403-12.693-0.574c-4.153-0.167-7.007,1.834-8.813,5.441
	c-1.868,3.731-2.04,7.668-1.228,11.693c0.091,0.452,0.23,0.895,0.409,1.57c-0.846,0.084-1.523,0.209-2.201,0.21
	c-7.034,0.014-14.068-0.041-21.102,0.044c-1.638,0.021-2.729-0.564-3.641-1.816c-2.233-3.07-2.875-6.426-1.517-9.973
	c1.367-3.568,4.328-5.196,7.937-5.769c2.945-0.468,5.697,0.173,8.39,1.889c3.082-8.545,9.091-13.199,18.159-13.949
	c0.205-4.529,1.971-8.043,6.657-9.059c4.543-0.985,7.669,1.228,9.775,5.4c0.73-0.724,1.341-1.311,1.934-1.916
	c5.146-5.256,11.299-8.237,18.735-8.437c1.321-0.036,2.633-0.403,4.115-0.644c0.07,0.738,0.181,1.353,0.182,1.967
	c0.013,6.155-0.013,12.31,0.025,18.464c0.007,1.113-0.343,1.847-1.141,2.684c-1.418,1.487-2.595,3.22-3.757,4.928
	C92.175,60.451,91.621,61.702,90.818,63.181z"/>
<path fill-rule="evenodd" clip-rule="evenodd" d="M36.25,41.211c-0.063,1.903-1.711,3.433-3.64,3.375
	c-1.934-0.058-3.484-1.686-3.421-3.589c0.064-1.91,1.71-3.444,3.634-3.386C34.735,37.668,36.312,39.324,36.25,41.211z"/>
</svg>
