<?xml version="1.0" encoding="utf-8"?>
<!-- Generator: Adobe Illustrator 16.0.0, SVG Export Plug-In . SVG Version: 6.00 Build 0)  -->
<!DOCTYPE svg PUBLIC "-//W3C//DTD SVG 1.1//EN" "http://www.w3.org/Graphics/SVG/1.1/DTD/svg11.dtd">
<svg version="1.1" id="图层_1" xmlns="http://www.w3.org/2000/svg" xmlns:xlink="http://www.w3.org/1999/xlink" x="0px" y="0px"
	 width="128px" height="128px" viewBox="0 0 128 128" enable-background="new 0 0 128 128" xml:space="preserve">
<path fill="#FFFFFF" d="M116.242,41.447H21.458c-0.204,0-0.399,0.039-0.589,0.098c-0.245,0.061-0.505,0.188-0.777,0.394L6.69,55.398
	c-1.353,1.024-1.353,2.7,0,3.724l13.253,13.312c0.035,0.031,0.066,0.068,0.102,0.1l0.047,0.049c0.096,0.072,0.189,0.133,0.282,0.188
	c0.33,0.203,0.695,0.324,1.083,0.324h94.785c1.418,0,2.566-1.508,2.566-3.367V44.814C118.809,42.955,117.66,41.447,116.242,41.447z"
	/>
</svg>
