<?xml version="1.0" encoding="utf-8"?>
<!-- Generator: Adobe Illustrator 16.0.0, SVG Export Plug-In . SVG Version: 6.00 Build 0)  -->
<!DOCTYPE svg PUBLIC "-//W3C//DTD SVG 1.1//EN" "http://www.w3.org/Graphics/SVG/1.1/DTD/svg11.dtd">
<svg version="1.1" id="图层_1" xmlns="http://www.w3.org/2000/svg" xmlns:xlink="http://www.w3.org/1999/xlink" x="0px" y="0px"
	 width="128px" height="128px" viewBox="0 0 128 128" enable-background="new 0 0 128 128" xml:space="preserve">
<path d="M82.18,102.364c-25.207,0-50.291,0-75.383,0c-0.914-2.654,0.224-7.482,1.837-9.933c3.616-5.492,8.988-7.648,15.128-8.599
	c1.814-0.278,3.644-0.578,5.394-1.108c1.513-0.459,3.004-1.123,4.359-1.939c2.601-1.566,3.856-3.973,3.781-7.029
	c-0.027-1.117-0.143-2.236-0.127-3.354c0.019-1.409-0.521-2.313-1.789-3.069c-2.716-1.622-4.871-3.839-6.353-6.701
	c-0.368-0.712-1.08-1.391-1.8-1.747c-1.766-0.871-2.711-2.207-2.793-4.128c-0.098-2.31-0.245-4.629-0.12-6.931
	c0.1-1.822,0.531-2.091,2.303-2.473c2.247-0.484,2.32-0.733,2.484-3.025c0.181-2.536,0.352-5.125,0.999-7.565
	c0.985-3.721,3.273-6.253,7.365-6.969c2.247-0.393,4.411-1.301,6.585-2.055c6.784-0.572,15.784,5.76,15.819,8.876
	c0.026,2.307,0.034,4.616,0.184,6.917c0.034,0.521,0.477,1.17,0.925,1.468c0.494,0.328,1.206,0.372,1.833,0.447
	c2.186,0.262,2.899,0.669,3.147,2.828c0.301,2.603,0.249,5.25,0.269,7.878c0.01,1.345-0.841,2.317-1.991,2.771
	c-2.912,1.146-4.672,3.251-6.144,5.959c-0.998,1.837-2.7,3.348-4.278,4.795c-0.968,0.889-1.543,1.776-1.539,3.061
	c0,0.08-0.006,0.16-0.02,0.238c-1.035,6.323,2.021,8.808,6.505,10.799c1.733,0.77,3.651,1.14,5.504,1.615
	c2.63,0.676,5.298,1.207,7.911,1.932C79.953,87.479,83.518,94.77,82.18,102.364z"/>
<path d="M121.046,102.471c-8.606,0-17.202,0-25.921,0c-0.434-2.015-0.916-3.852-1.215-5.718c-0.904-5.62-4.176-9.582-8.805-12.53
	c-1.366-0.871-2.082-1.844-1.965-3.455c0.146-1.982-0.509-3.435-2.406-4.459c-1.142-0.615-2.084-1.756-2.859-2.843
	c-0.967-1.354-1.664-2.858-3.348-3.584c-0.475-0.204-0.926-0.987-0.979-1.546c-0.194-2.059-0.272-4.131-0.288-6.198
	c-0.007-0.921,0.393-1.714,1.469-1.904c1.215-0.214,1.44-1.045,1.379-2.13c-0.131-2.313-0.344-4.635-0.26-6.942
	c0.067-1.895,0.35-3.82,0.84-5.651c0.604-2.257,2.16-3.606,4.58-3.993c3.14-0.5,6.262-1.116,9.373-1.779
	c1.983-0.423,3.625-0.045,4.942,1.545c0.97,1.171,2.035,1.709,3.731,1.463c2.688-0.39,4.474,1.062,4.724,3.899
	c0.336,3.81,0.308,7.651,0.421,11.479c0.018,0.554-0.05,1.108-0.085,1.797c3.453,1.332,3.079,4.389,3.131,7.227
	c0.022,1.268-0.888,2.039-1.899,2.57c-1.262,0.664-1.979,1.693-2.711,2.891c-0.987,1.611-2.232,3.125-3.615,4.416
	c-1.027,0.959-1.588,1.899-1.553,3.279c0.02,0.715-0.117,1.432-0.188,2.146c-0.267,2.646,0.498,4.346,2.925,5.447
	c1.723,0.781,3.623,1.193,5.473,1.658c1.855,0.469,3.777,0.689,5.617,1.207C117.822,92.523,120.45,95.794,121.046,102.471z"/>
</svg>
