<?xml version="1.0" encoding="utf-8"?>
<!-- Generator: Adobe Illustrator 16.0.0, SVG Export Plug-In . SVG Version: 6.00 Build 0)  -->
<!DOCTYPE svg PUBLIC "-//W3C//DTD SVG 1.1//EN" "http://www.w3.org/Graphics/SVG/1.1/DTD/svg11.dtd">
<svg version="1.1" id="图层_1" xmlns="http://www.w3.org/2000/svg" xmlns:xlink="http://www.w3.org/1999/xlink" x="0px" y="0px"
	 width="128px" height="128px" viewBox="0 0 128 128" enable-background="new 0 0 128 128" xml:space="preserve">
<path fill-rule="evenodd" clip-rule="evenodd" d="M103.976,75.633c0,2.306,0.002,4.607,0,6.91c-0.001,2.08,0.062,4.162-0.043,6.236
	c-0.036,0.729-0.357,1.936-0.776,2.043c-0.702,0.182-1.703-0.168-2.366-0.611c-0.914-0.61-1.679-1.473-2.423-2.304
	c-3.306-3.696-6.621-7.386-9.845-11.154c-0.975-1.14-1.982-1.694-3.5-1.571c-1.577,0.129-3.172,0.029-4.755,0.029
	c-0.415,1.01-0.746,1.817-1.077,2.625c-2.231,5.426-5.526,10.088-10.063,13.824c-5.246,4.322-11.215,6.693-18.094,6.547
	c-2.079-0.045-4.163,0.063-6.238-0.031c-1.261-0.059-2.068,0.402-2.827,1.379c-2.896,3.727-5.838,7.417-8.826,11.068
	c-0.746,0.912-1.63,1.791-2.626,2.396c-1.493,0.911-2.629,0.311-2.958-1.437c-0.161-0.855-0.147-1.751-0.151-2.628
	c-0.015-3.671-0.006-7.342-0.006-11.041c-0.915-0.384-1.717-0.732-2.526-1.061c-4.045-1.644-7.677-3.941-10.88-6.905
	C1.249,78.152,2.666,61.824,9.42,51.179c5.813-9.163,14.194-14.076,25.155-14.25c4.558-0.073,9.118-0.016,13.678-0.019
	c0.866,0,1.732,0,2.621,0c0.433-1.075,0.786-1.954,1.14-2.833c2.382-5.933,6.085-10.861,11.252-14.644
	c4.852-3.552,10.273-5.463,16.324-5.465c5.439-0.001,10.884,0.134,16.317-0.03c14.554-0.437,26.479,9.663,29.95,23.308
	c2.916,11.462,0.162,21.718-7.476,30.636c-3.479,4.062-7.817,6.822-13.306,7.397C104.774,75.31,104.485,75.465,103.976,75.633z
	 M96.359,67.897c1.521-0.163,2.861-0.285,4.197-0.452c9.683-1.217,16.354-7.219,18.104-16.551c0.496-2.646,0.713-5.424,0.534-8.105
	c-0.808-12.136-10.041-21.405-22.281-21.199c-4.958,0.083-9.919,0.046-14.878,0.005c-10.665-0.088-17.953,5.228-22.935,14.257
	c-0.333,0.604-0.527,1.284-0.832,2.043c1.41,0.431,2.633,0.783,3.841,1.177c12.736,4.157,19.479,13.333,19.637,26.697
	c0.006,0.528,0.097,1.058,0.168,1.792c1.806,0,3.474,0.053,5.136-0.018c1.128-0.047,1.974,0.313,2.762,1.121
	c1.619,1.658,3.308,3.252,4.992,4.846c0.359,0.341,0.823,0.57,1.556,1.064C96.359,72.127,96.359,70.07,96.359,67.897z"/>
</svg>
