<?xml version="1.0" encoding="utf-8"?>
<!-- Generator: Adobe Illustrator 16.0.0, SVG Export Plug-In . SVG Version: 6.00 Build 0)  -->
<!DOCTYPE svg PUBLIC "-//W3C//DTD SVG 1.1//EN" "http://www.w3.org/Graphics/SVG/1.1/DTD/svg11.dtd">
<svg version="1.1" id="图层_1" xmlns="http://www.w3.org/2000/svg" xmlns:xlink="http://www.w3.org/1999/xlink" x="0px" y="0px"
	 width="128px" height="128px" viewBox="0 0 128 128" enable-background="new 0 0 128 128" xml:space="preserve">
<path fill-rule="evenodd" clip-rule="evenodd" d="M50.631,52.298c-1.967,4.395-2.479,8.734-0.717,13.141
	c1.192,2.98,3.133,5.371,5.815,7.141c5.294,3.495,12.227,3.353,17.356-0.373c3.102-2.25,5.074-5.269,5.98-8.988
	c0.907-3.727,0.166-7.271-1.43-10.934c0.811-0.074,1.404-0.176,2-0.176c11.194-0.01,22.389-0.027,33.583,0.004
	c5.282,0.014,9.945,3.425,11.645,8.428c0.987,2.911,0.552,5.675-0.98,8.296c-1.549,2.651-3.82,4.475-6.587,5.667
	c0.039,0.855,0.238,1.689,0.088,2.454c-2.34,11.838-4.725,23.667-7.105,35.497c-0.045,0.227-0.162,0.439-0.302,0.807
	c-30.479,0-60.99,0-91.859,0c-2.467-12.537-4.948-25.129-7.393-37.728c-0.034-0.177,0.388-0.442,0.685-0.759
	c-0.563-0.293-1.107-0.556-1.631-0.854c-0.556-0.314-1.114-0.633-1.635-1.002c-4.205-2.982-6.131-7.803-4.843-12.076
	c1.46-4.843,6.22-8.678,11.194-8.711c11.594-0.077,23.188-0.027,34.782-0.02C49.649,52.112,50.021,52.211,50.631,52.298z
	 M55.93,104.083c0.865-4.684,0.674-19.499,0.13-21.203c-2.279,0-4.567,0-7.18,0C51.276,90.083,53.603,97.083,55.93,104.083z
	 M41.105,82.948c-2.438-0.357-4.832-0.143-7.541-0.156c0.867,2.66,1.62,4.992,2.388,7.32c0.797,2.42,1.564,4.853,2.426,7.25
	c0.808,2.246,1.311,4.623,2.727,6.642C41.105,97.08,41.105,90.155,41.105,82.948z M72.12,82.848
	c-0.558,3.474-0.386,19.683,0.183,21.11c2.794-7.01,6.66-19.328,6.595-21.11C76.688,82.848,74.475,82.848,72.12,82.848z
	 M94.743,82.823c-2.758-0.065-5.097-0.142-7.386,0.033c-0.454,4.073-0.291,19.225,0.297,21.258
	C90.057,96.898,92.355,89.994,94.743,82.823z"/>
<path fill-rule="evenodd" clip-rule="evenodd" d="M56.499,40.642c0-6.075-0.022-12.15,0.021-18.225
	c0.008-1.1,0.115-2.26,0.479-3.283c1.177-3.302,4.711-5.623,7.783-5.27c3.49,0.4,6.597,3.584,7.015,7.198
	c0.046,0.396,0.043,0.798,0.043,1.197c0.002,12.229-0.006,24.46,0.009,36.688c0.003,1.908-0.485,3.63-1.638,5.152
	c-2.049,2.71-5.195,3.887-7.991,2.994c-3.199-1.021-5.55-4.006-5.709-7.27c-0.031-0.639-0.012-1.279-0.012-1.918
	C56.498,52.151,56.499,46.396,56.499,40.642z"/>
</svg>
