<?xml version="1.0" encoding="utf-8"?>
<!-- Generator: Adobe Illustrator 16.0.0, SVG Export Plug-In . SVG Version: 6.00 Build 0)  -->
<!DOCTYPE svg PUBLIC "-//W3C//DTD SVG 1.1//EN" "http://www.w3.org/Graphics/SVG/1.1/DTD/svg11.dtd">
<svg version="1.1" id="图层_1" xmlns="http://www.w3.org/2000/svg" xmlns:xlink="http://www.w3.org/1999/xlink" x="0px" y="0px"
	 width="128px" height="128px" viewBox="0 0 128 128" enable-background="new 0 0 128 128" xml:space="preserve">
<path fill-rule="evenodd" clip-rule="evenodd" d="M42.352,52.521c-8.923-0.188-15.463-0.69-21.727-2.815
	c-2.62-0.889-5.252-2.021-7.539-3.551c-4.66-3.115-4.689-7.264-0.046-10.354c2.421-1.61,5.187-2.925,7.982-3.713
	c12.822-3.61,25.728-3.586,38.555,0.007c2.577,0.722,5.124,1.89,7.392,3.317c5.28,3.322,5.242,7.643,0.077,11.102
	c-3.79,2.539-8.093,3.852-12.519,4.563C49.729,51.848,44.869,52.232,42.352,52.521z"/>
<path fill-rule="evenodd" clip-rule="evenodd" d="M97.723,67.771c-4.275-0.072-8.42-0.754-12.289-2.69
	c-2.021-1.012-3.838-2.297-5.201-4.132c-2.194-2.951-2.199-6.367-0.012-9.322c1.41-1.906,3.273-3.295,5.416-4.234
	c8.031-3.526,16.127-3.588,24.119,0.034c1.836,0.832,3.566,2.183,4.951,3.662c2.924,3.12,2.826,7.153,0.053,10.408
	c-1.588,1.863-3.615,3.116-5.834,4.084C105.355,67.14,101.588,67.702,97.723,67.771z"/>
<path fill-rule="evenodd" clip-rule="evenodd" d="M69.143,83.264c2.327,2.824,2.439,5.106,0.025,7.359
	c-1.603,1.496-3.558,2.73-5.549,3.67c-4.678,2.207-9.729,3.139-14.842,3.648c-8.819,0.88-17.589,0.626-26.196-1.677
	c-2.381-0.637-4.728-1.521-6.952-2.582c-1.556-0.743-3.037-1.817-4.268-3.032c-2.332-2.304-2.276-4.574-0.08-7.247
	c1.539,0.938,3.037,1.988,4.651,2.806c3.745,1.896,7.783,2.9,11.908,3.55c9.499,1.495,18.97,1.388,28.378-0.689
	C60.856,88.045,65.293,86.498,69.143,83.264z"/>
<path fill-rule="evenodd" clip-rule="evenodd" d="M11.369,52.617c4.986,4.113,10.863,5.6,16.887,6.566
	c8.342,1.34,16.705,1.303,25.039-0.182c5.697-1.015,11.205-2.537,15.78-6.294c2.222,2.292,2.565,4.456,0.636,6.61
	c-1.35,1.507-3.089,2.783-4.875,3.757c-3.75,2.045-7.893,3.022-12.089,3.68c-10.214,1.6-20.383,1.46-30.413-1.215
	c-2.525-0.674-4.975-1.727-7.346-2.847c-1.338-0.633-2.582-1.622-3.629-2.686C9.059,57.674,9.086,55.475,11.369,52.617z"/>
<path fill-rule="evenodd" clip-rule="evenodd" d="M69.129,68.027c2.236,2.462,2.492,4.641,0.406,6.844
	c-1.393,1.471-3.158,2.694-4.958,3.654c-3.769,2.011-7.917,2.966-12.114,3.599C42.41,83.64,32.394,83.529,22.52,80.911
	c-2.602-0.69-5.127-1.771-7.572-2.915c-1.34-0.627-2.577-1.63-3.619-2.698c-2.287-2.343-2.238-4.591,0.048-7.327
	c3.368,2.788,7.325,4.413,11.543,5.424c11.624,2.786,23.261,2.792,34.872-0.053C62.707,72.138,65.029,70.972,69.129,68.027z"/>
<path fill-rule="evenodd" clip-rule="evenodd" d="M79.473,83.491c8.541,10.128,29.229,9.139,36.338,0.014
	c1.367,2.115,1.258,4.226,0.391,6.355c-0.779,1.912-2.213,3.302-3.873,4.47c-2.803,1.972-5.957,3.08-9.307,3.613
	c-5.631,0.896-11.16,0.554-16.469-1.701c-2.609-1.108-4.955-2.612-6.578-5.021C78.336,88.787,78.15,86.265,79.473,83.491z"/>
<path fill-rule="evenodd" clip-rule="evenodd" d="M115.896,67.967c1.475,3.294,1.09,5.981-0.83,8.474
	c-1.553,2.016-3.607,3.414-5.924,4.358c-7.613,3.101-15.264,3.105-22.873-0.009c-2.393-0.979-4.5-2.437-6.065-4.555
	c-1.854-2.511-2.073-4.983-0.613-8.116c4.788,5.534,11.12,7.282,18.015,7.287C104.516,75.411,110.914,73.804,115.896,67.967z"/>
</svg>
