<?xml version="1.0" encoding="utf-8"?>
<!-- Generator: Adobe Illustrator 16.0.0, SVG Export Plug-In . SVG Version: 6.00 Build 0)  -->
<!DOCTYPE svg PUBLIC "-//W3C//DTD SVG 1.1//EN" "http://www.w3.org/Graphics/SVG/1.1/DTD/svg11.dtd">
<svg version="1.1" id="图层_1" xmlns="http://www.w3.org/2000/svg" xmlns:xlink="http://www.w3.org/1999/xlink" x="0px" y="0px"
	 width="128px" height="128px" viewBox="0 0 128 128" enable-background="new 0 0 128 128" xml:space="preserve">
<path fill-rule="evenodd" clip-rule="evenodd" d="M29.092,98.46v7.6h68.456v-7.6H29.092z M29.092,83.261v7.6h68.456v-7.6H29.092z
	 M29.092,68.061v7.6h68.456v-7.6H29.092z M59.517,52.86v7.6h38.031v-7.6H59.517z M59.517,37.66v7.601h38.031V37.66H59.517z
	 M29.092,37.66v22.8h22.819v-22.8H29.092z M59.517,14.86h3.804h3.803v3.8v3.8H63.32h-3.804v-3.8V14.86z M82.335,30.061V22.46v-7.6
	v-7.6H67.123H44.305v7.6v7.6v7.601H82.335z M13.88,22.46v7.601v7.6v76l7.606,7.601h68.455h15.213l7.605-7.601v-53.2v-22.8v-7.6
	V22.46l-7.605-7.6H89.941v7.6h15.213v7.601v7.6v30.4v45.6H89.941H21.486v-76v-7.6V22.46h15.212v-7.6H21.486L13.88,22.46z"/>
</svg>
