<?xml version="1.0" encoding="utf-8"?>
<!-- Generator: Adobe Illustrator 16.0.0, SVG Export Plug-In . SVG Version: 6.00 Build 0)  -->
<!DOCTYPE svg PUBLIC "-//W3C//DTD SVG 1.1//EN" "http://www.w3.org/Graphics/SVG/1.1/DTD/svg11.dtd">
<svg version="1.1" id="图层_1" xmlns="http://www.w3.org/2000/svg" xmlns:xlink="http://www.w3.org/1999/xlink" x="0px" y="0px"
	 width="128px" height="128px" viewBox="0 0 128 128" enable-background="new 0 0 128 128" xml:space="preserve">
<path fill-rule="evenodd" clip-rule="evenodd" d="M74.829,117.745c-23.96,0-47.92,0-71.968,0c-0.06-0.116-0.251-0.317-0.257-0.524
	c-0.147-4.724-0.065-9.432,1.026-14.066c0.393-1.672,1.234-3.041,2.381-4.348c4.583-5.217,10.481-8.02,17.096-9.525
	c2.647-0.604,5.334-1.034,8.009-1.512c3.563-0.635,7.015-1.599,10.195-3.375c2.936-1.641,5.323-3.828,6.646-6.991
	c0.3-0.716,0.539-1.524,0.534-2.29c-0.012-1.996-0.201-3.991-0.264-5.988c-0.027-0.879-0.358-1.482-1.083-1.99
	c-3.681-2.58-6.469-5.896-8.347-10.008c-0.319-0.697-1.13-1.339-1.865-1.647c-2.818-1.18-4.162-3.37-3.892-6.237
	c0.282-2.997,0.991-5.968,1.695-8.906c0.37-1.545,1.4-2.559,3.172-2.847c1.858-0.302,2.189-0.863,2.07-2.854
	c-0.226-3.768-0.165-7.522,0.626-11.218c0.332-1.55,0.842-3.089,1.482-4.541c1.311-2.97,3.549-4.838,6.834-5.413
	c1.428-0.25,3.093-0.155,3.852-1.892c0.086-0.197,0.555-0.264,0.859-0.324c2.117-0.416,4.242-0.792,6.355-1.226
	c1.631-0.334,3.029,0.169,4.226,1.198c1.21,1.04,2.331,2.185,3.467,3.308c0.976,0.966,2.005,1.345,3.454,1.049
	c4.612-0.942,7.691,1.31,8.279,5.943c0.141,1.105,0.096,2.234,0.143,3.352c0.087,2.074,0.229,4.146,0.248,6.22
	c0.013,1.27-0.131,2.543-0.252,3.81c-0.162,1.704,0.23,2.365,1.873,2.767c0.69,0.168,1.426,0.231,2.139,0.218
	c1.605-0.03,2.611,0.778,3.015,2.232c0.984,3.553,0.845,7.136-0.186,10.642c-0.249,0.845-1.034,1.599-1.724,2.23
	c-0.697,0.639-1.543,1.152-2.395,1.579c-1.43,0.716-2.227,1.833-2.952,3.26c-1.261,2.478-2.644,4.967-4.407,7.096
	c-1.83,2.21-3.461,4.533-5.086,6.877c-9.333,13.463-7.9,31.646,3.431,43.501c0.591,0.618,1.177,1.241,1.765,1.861
	C74.958,117.359,74.894,117.553,74.829,117.745z"/>
<path fill-rule="evenodd" clip-rule="evenodd" d="M97.805,118.236c-15-0.244-26.697-12.404-26.455-27.502
	c0.233-14.605,12.498-26.278,27.391-26.068c14.627,0.206,26.58,12.609,26.252,27.242
	C124.661,106.691,112.494,118.475,97.805,118.236z M101.867,87.817c-2.624,0-4.969,0-7.378,0c0,7.636,0,15.081,0,22.498
	c2.663,0.5,5.717,0.422,7.378-0.164C101.867,102.771,101.867,95.383,101.867,87.817z M101.852,79.852c0-2.537,0-4.883,0-7.35
	c-2.532,0-4.931,0-7.342,0c0,2.547,0,4.891,0,7.35C96.969,79.852,99.255,79.852,101.852,79.852z"/>
</svg>
