<?xml version="1.0" encoding="utf-8"?>
<!-- Generator: Adobe Illustrator 16.0.0, SVG Export Plug-In . SVG Version: 6.00 Build 0)  -->
<!DOCTYPE svg PUBLIC "-//W3C//DTD SVG 1.1//EN" "http://www.w3.org/Graphics/SVG/1.1/DTD/svg11.dtd">
<svg version="1.1" id="图层_1" xmlns="http://www.w3.org/2000/svg" xmlns:xlink="http://www.w3.org/1999/xlink" x="0px" y="0px"
	 width="128px" height="128px" viewBox="0 0 128 128" enable-background="new 0 0 128 128" xml:space="preserve">
<path fill-rule="evenodd" clip-rule="evenodd" d="M95.365,84.896c-3.663,3.656-7.099,7.086-10.726,10.706
	C77.714,88.682,70.667,81.64,63.44,74.418c-7.163,7.149-14.218,14.19-21.103,21.06c-3.574-3.58-7.043-7.055-10.688-10.705
	c6.816-6.837,13.842-13.882,21.046-21.107c-7.199-7.205-14.238-14.249-21.13-21.146c3.604-3.6,7.04-7.034,10.725-10.716
	c6.859,6.86,13.941,13.942,21.162,21.164c7.16-7.224,14.13-14.255,21.344-21.532c3.646,3.639,7.124,7.109,10.804,10.781
	c-7.151,7.155-14.188,14.196-21.443,21.456C81.309,70.831,88.348,77.875,95.365,84.896z"/>
</svg>
