<?xml version="1.0" encoding="utf-8"?>
<!-- Generator: Adobe Illustrator 16.0.0, SVG Export Plug-In . SVG Version: 6.00 Build 0)  -->
<!DOCTYPE svg PUBLIC "-//W3C//DTD SVG 1.1//EN" "http://www.w3.org/Graphics/SVG/1.1/DTD/svg11.dtd">
<svg version="1.1" id="图层_1" xmlns="http://www.w3.org/2000/svg" xmlns:xlink="http://www.w3.org/1999/xlink" x="0px" y="0px"
	 width="128px" height="128px" viewBox="0 0 128 128" enable-background="new 0 0 128 128" xml:space="preserve">
<path fill-rule="evenodd" clip-rule="evenodd" d="M32.256,13.458c0,2.651,0,4.945,0,7.479c-4.991,0.383-9.923-0.056-14.949,0.251
	c-0.566,2.425-0.124,4.788-0.319,7.477c2.7,0.207,5.228,0.081,7.745,0.104c2.455,0.021,4.91,0.005,7.493,0.005
	c0,2.606,0,4.896,0,7.537c-4.967,0.271-9.96-0.061-15.054,0.195c0,25.537,0,50.859,0,76.172c1.741,0.5,81.198,0.615,84.138,0.076
	c0-0.879,0-1.818,0-2.756c0-13.518,0.024-27.037-0.03-40.555c-0.007-1.641,0.369-2.893,1.623-4c1.556-1.375,2.953-2.928,4.437-4.385
	c0.374-0.367,0.814-0.668,1.49-1.213c0.059,1.094,0.135,1.865,0.136,2.637c0.006,16.078-0.017,32.156,0.033,48.234
	c0.005,1.645-0.42,2.877-1.648,3.992c-1.775,1.609-3.436,3.35-5.101,5.078c-0.66,0.684-1.374,1.051-2.328,0.957
	c-0.396-0.039-0.799-0.004-1.199-0.004c-26.396,0-52.794-0.016-79.191,0.033c-1.729,0.004-3.045-0.363-4.2-1.711
	c-1.299-1.514-2.715-2.953-4.239-4.236c-1.441-1.215-1.756-2.637-1.753-4.424C9.381,85.685,9.367,60.968,9.367,36.25
	c0-4.399,0.032-8.799-0.02-13.198c-0.016-1.276,0.269-2.274,1.247-3.181c1.876-1.739,3.611-3.629,5.465-5.392
	c0.486-0.461,1.19-0.966,1.804-0.977C22.567,13.421,27.273,13.458,32.256,13.458z"/>
<path fill-rule="evenodd" clip-rule="evenodd" d="M47.606,96.878c-4.789-4.76-9.758-9.699-14.568-14.482
	c17.585-17.568,35.323-35.291,53-52.953c4.685,4.786,9.628,9.839,14.368,14.683C82.95,61.565,65.172,79.327,47.606,96.878z"/>
<path fill-rule="evenodd" clip-rule="evenodd" d="M40.148,36.137c0-10.117,0-20.079,0-30.197c12.708,0,25.292,0,38.184,0
	c0,2.382,0.063,4.67-0.047,6.95c-0.026,0.537-0.559,1.123-0.989,1.556c-6.934,6.968-13.892,13.911-20.831,20.873
	c-0.643,0.645-1.277,1.114-2.27,1.104c-4.395-0.047-8.79-0.029-13.186-0.049C40.787,36.372,40.563,36.255,40.148,36.137z
	 M55.505,20.921c2.586,0,4.932,0,7.346,0c0-2.534,0-4.879,0-7.361c-2.506,0-4.854,0-7.346,0C55.505,16.05,55.505,18.4,55.505,20.921
	z"/>
<path fill-rule="evenodd" clip-rule="evenodd" d="M94.094,20.663c2.034-2.031,4.321-4.355,6.669-6.617
	c0.357-0.345,0.984-0.425,1.501-0.582c0.22-0.067,0.476-0.013,0.715-0.018c5.833-0.122,5.673,0.058,9.984,3.912
	c2.88,2.573,4.158,5.335,3.709,9.166c-0.188,1.605-0.544,2.832-1.724,3.962c-1.954,1.871-3.76,3.897-5.406,5.625
	C104.33,30.898,99.342,25.91,94.094,20.663z"/>
<path fill-rule="evenodd" clip-rule="evenodd" d="M32.325,90.716c2.33,2.309,4.681,4.637,7.031,6.967
	c-0.993,0.996-9.322,5.355-13.813,7.137C25.594,103.325,30.687,92.81,32.325,90.716z"/>
</svg>
